<?xml version="1.0" encoding="UTF-8"?>
<!-- Generator: Adobe Illustrator 21.0.1, SVG Export Plug-In . SVG Version: 6.00 Build 0)  -->
<svg version="1.0" id="Laag_1" xmlns="http://www.w3.org/2000/svg" xmlns:xlink="http://www.w3.org/1999/xlink" x="0px" y="0px" viewBox="0 0 243.8 101" style="enable-background:new 0 0 243.8 101;" xml:space="preserve">
<style type="text/css">
	.st0{fill:#010202;}
</style>
<g>
	<path class="st0" d="M74.5,72.2L63,99.3l2.9,1.2l11.5-27.2L74.5,72.2z M56.2,75.8h-2.9v18.8c0,2.4,1,3.4,3.5,3.4   c0.9,0,1.6-0.1,2-0.2v-2.3c-0.2,0-0.6,0-0.9,0c-1.2,0-1.7-0.3-1.7-1.3V75.8z M37.2,93.4c0-1.9,1.4-2.4,3.5-2.8l2.2-0.4   c1.1-0.2,1.6-0.3,2-0.4v1.7c0,3.3-2.9,4.3-4.5,4.3C38.8,95.9,37.2,95.2,37.2,93.4 M47.6,98.3c0.7,0,1.4-0.1,1.8-0.2v-2.2   c-0.2,0-0.4,0.1-0.6,0.1c-0.8,0-1.1-0.5-1.1-1.2v-8.3c0-3.4-2.6-5-6.2-5c-5.3,0-6.5,2.6-6.6,5.4h2.8c0-1.9,1.4-2.9,3.7-2.9   c2.8,0,3.4,1.2,3.4,2.6v1.3c-0.3,0.2-1.1,0.3-1.6,0.4l-4,0.6c-4,0.6-5,2.7-5,5.1c0,3.1,2.3,4.7,5.4,4.7c2.7,0,4.2-1,5.3-2.2   C45.2,97.6,46,98.3,47.6,98.3 M19,93.4c0-1.9,1.4-2.4,3.5-2.8l2.2-0.4c1.1-0.2,1.6-0.3,2-0.4v1.7c0,3.3-2.9,4.3-4.5,4.3   C20.6,95.9,19,95.2,19,93.4 M29.5,98.3c0.7,0,1.4-0.1,1.8-0.2v-2.2c-0.2,0-0.4,0.1-0.6,0.1c-0.8,0-1.1-0.5-1.1-1.2v-8.3   c0-3.4-2.6-5-6.2-5c-5.3,0-6.5,2.6-6.6,5.4h2.8c0-1.9,1.4-2.9,3.7-2.9c2.8,0,3.4,1.2,3.4,2.6v1.3c-0.3,0.2-1.1,0.3-1.6,0.4l-4,0.6   c-4,0.6-5,2.7-5,5.1c0,3.1,2.3,4.7,5.4,4.7c2.7,0,4.2-1,5.3-2.2C27.1,97.6,27.8,98.3,29.5,98.3 M7.2,77.3v4.4H5V84h2.2v10.5   c0,2.4,1.2,3.4,3.7,3.4c0.9,0,1.5-0.1,2-0.2v-2.3c-0.2,0-0.7,0.1-1.1,0.1c-1.2,0-1.7-0.3-1.7-1.3V84h2.7v-2.3h-2.7v-4.4H7.2z"/>
	<path class="st0" d="M228.3,53.4c0.2-3.2,2.4-4.6,4.3-4.6c2.6,0,4,1.5,4.3,4.6H228.3z M225.1,55c0,5.7,3.6,8.3,7.7,8.3   c3.5,0,6.4-1.9,6.9-5.6h-2.9c-0.5,2.1-2,3.1-4.2,3.1c-2.7,0-4.3-1.6-4.4-5.2h11.7v-0.5c0-5.9-2.9-8.8-7.2-8.8   C228,46.3,225.1,50,225.1,55 M208.7,51.4c0,2.3,1.6,3.5,4.8,4.3l2.2,0.6c2.6,0.6,3.1,1.1,3.1,2.2c0,1.6-1.4,2.5-3.6,2.5   c-2.8,0-3.9-1.2-4.1-3.2h-2.8c0.2,4.4,3.1,5.7,6.8,5.7c4.4,0,6.7-2.3,6.7-5.3c0-2.5-1.2-3.7-5.4-4.7l-1.9-0.5   c-2.1-0.5-2.8-1.2-2.8-2.2c0-1.3,1.2-2,3-2c2.5,0,3.6,1,3.7,2.6h2.8c-0.1-3-2.3-5.1-6.3-5.1C211.4,46.3,208.7,48.1,208.7,51.4    M192.4,54.9c0-3.8,1.7-6,4.4-6c2.6,0,4.2,2.1,4.2,5.8c0,4.2-1.9,6-4.2,6C194.3,60.8,192.4,59,192.4,54.9 M189.4,55.1   c0,5.5,3.6,8.2,6.6,8.2c2.3,0,3.8-0.9,5.1-2.8v2.2h2.7V40.7h-2.8v8.1c-1.3-1.7-2.5-2.4-4.7-2.4C192.1,46.4,189.4,50,189.4,55.1    M174.4,46.7h-2.8v16h2.9v-9.4c0-2.9,2.1-4.5,4.4-4.5c2,0,3,1.3,3,3.8v10.1h3V52.4c0-4.4-2-6.1-5.3-6.1c-2.2,0-3.9,0.9-5.2,2.6   V46.7z M155.5,58.4c0-1.9,1.4-2.4,3.5-2.8l2.2-0.4c1.1-0.2,1.6-0.3,2-0.4v1.7c0,3.3-2.9,4.3-4.5,4.3   C157.1,60.9,155.5,60.2,155.5,58.4 M165.9,63.3c0.7,0,1.4-0.1,1.8-0.2v-2.2c-0.2,0-0.4,0.1-0.6,0.1c-0.8,0-1.1-0.5-1.1-1.2v-8.3   c0-3.4-2.6-5-6.2-5c-5.3,0-6.5,2.6-6.6,5.4h2.8c0-1.9,1.4-2.9,3.7-2.9c2.8,0,3.4,1.2,3.4,2.6v1.3c-0.3,0.2-1.1,0.3-1.6,0.4l-4,0.6   c-4,0.6-5,2.7-5,5.1c0,3.1,2.3,4.7,5.4,4.7c2.7,0,4.2-1,5.3-2.2C163.5,62.6,164.3,63.3,165.9,63.3 M146.9,40.8H144v18.8   c0,2.4,1,3.4,3.5,3.4c0.9,0,1.6-0.1,2-0.2v-2.3c-0.2,0-0.6,0-0.9,0c-1.2,0-1.7-0.3-1.7-1.3V40.8z M135,46.7h-2.8v16h2.9v-9   c0-2.9,1.9-4.4,4.2-4.4c0.3,0,0.6,0,0.9,0.1v-3.1c-0.2,0-0.5-0.1-0.8-0.1c-2.1,0-3.5,1.4-4.5,3.1V46.7z M115.9,53.4   c0.2-3.2,2.4-4.6,4.3-4.6c2.6,0,4,1.5,4.3,4.6H115.9z M112.8,55c0,5.7,3.6,8.3,7.7,8.3c3.5,0,6.4-1.9,6.9-5.6h-2.9   c-0.5,2.1-2,3.1-4.2,3.1c-2.7,0-4.3-1.6-4.4-5.2h11.7v-0.5c0-5.9-2.9-8.8-7.2-8.8C115.6,46.3,112.8,50,112.8,55 M97,54.9   c0-3.8,1.7-6,4.4-6c2.6,0,4.2,2.1,4.2,5.8c0,4.2-1.9,6-4.2,6C98.8,60.8,97,59,97,54.9 M93.9,55.1c0,5.5,3.6,8.2,6.6,8.2   c2.3,0,3.8-0.9,5.1-2.8v2.2h2.7V40.7h-2.8v8.1c-1.3-1.7-2.5-2.4-4.7-2.4C96.6,46.4,93.9,50,93.9,55.1 M78.6,53.4   c0.2-3.2,2.4-4.6,4.3-4.6c2.6,0,4,1.5,4.3,4.6H78.6z M75.5,55c0,5.7,3.6,8.3,7.7,8.3c3.5,0,6.4-1.9,6.9-5.6h-2.9   c-0.5,2.1-2,3.1-4.2,3.1c-2.7,0-4.3-1.6-4.4-5.2h11.7v-0.5c0-5.9-2.9-8.8-7.2-8.8C78.3,46.3,75.5,50,75.5,55 M67.7,58.2L56.9,40.8   h-3.7v22h3V45.3l11,17.5h3.5v-22h-3.1V58.2z M27.6,53.4c0.2-3.2,2.4-4.6,4.3-4.6c2.6,0,4,1.5,4.3,4.6H27.6z M24.4,55   c0,5.7,3.6,8.3,7.7,8.3c3.5,0,6.4-1.9,6.9-5.6H36c-0.5,2.1-2,3.1-4.2,3.1c-2.7,0-4.3-1.6-4.4-5.2h11.7v-0.5c0-5.9-2.9-8.8-7.2-8.8   C27.3,46.3,24.4,50,24.4,55 M8.6,54.9c0-3.8,1.7-6,4.4-6c2.6,0,4.2,2.1,4.2,5.8c0,4.2-1.9,6-4.2,6C10.4,60.8,8.6,59,8.6,54.9    M5.5,55.1c0,5.5,3.6,8.2,6.6,8.2c2.3,0,3.8-0.9,5.1-2.8v2.2h2.7V40.7h-2.8v8.1c-1.3-1.7-2.5-2.4-4.7-2.4C8.2,46.4,5.5,50,5.5,55.1   "/>
	<path class="st0" d="M210.2,11.7h-2.8v16h2.9v-9c0-2.9,1.9-4.4,4.2-4.4c0.3,0,0.6,0,0.9,0.1v-3.1c-0.2,0-0.5-0.1-0.8-0.1   c-2.1,0-3.5,1.4-4.5,3.1V11.7z M190.6,20c0-4.5,2-6.2,4.6-6.2c2.7,0,4.5,1.6,4.5,5.8c0,3.6-1.2,6.3-4.6,6.3   C192.8,25.8,190.6,24.4,190.6,20 M187.6,20c0,5.9,3.6,8.3,7.4,8.3c5.7,0,7.8-4.2,7.8-8.9c0-5.7-3.6-8.2-7.5-8.2   C190.3,11.2,187.6,15.1,187.6,20 M171.8,20c0-4.5,2-6.2,4.6-6.2c2.7,0,4.5,1.6,4.5,5.8c0,3.6-1.2,6.3-4.6,6.3   C173.9,25.8,171.8,24.4,171.8,20 M168.8,20c0,5.9,3.6,8.3,7.4,8.3c5.7,0,7.8-4.2,7.8-8.9c0-5.7-3.6-8.2-7.5-8.2   C171.5,11.2,168.8,15.1,168.8,20 M159.1,24.6L155,11.7h-3.4l5.9,16h3.1l6-16h-3.2L159.1,24.6z M135.4,7.3v4.4h-2.2V14h2.2v10.5   c0,2.4,1.2,3.4,3.7,3.4c0.9,0,1.5-0.1,2-0.2v-2.3c-0.2,0-0.7,0.1-1.1,0.1c-1.2,0-1.7-0.3-1.7-1.3V14h2.7v-2.3h-2.7V7.3H135.4z    M119.2,11.7h-2.9v10.8c0,4.2,2.1,5.6,5.4,5.6c2.5,0,4-1.1,5-2.8l0,2.4h2.7v-16h-2.9v9.5c0,2.6-1.8,4.5-4.3,4.5c-1.9,0-3-1-3-3.4   V11.7z M100.5,11.7h-2.9v10.8c0,4.2,2.1,5.6,5.4,5.6c2.5,0,4-1.1,5-2.8l0,2.4h2.7v-16h-2.9v9.5c0,2.6-1.8,4.5-4.3,4.5   c-1.9,0-3-1-3-3.4V11.7z M87.7,7.3v4.4h-2.2V14h2.2v10.5c0,2.4,1.2,3.4,3.7,3.4c0.9,0,1.5-0.1,2-0.2v-2.3c-0.2,0-0.7,0.1-1.1,0.1   c-1.2,0-1.7-0.3-1.7-1.3V14h2.7v-2.3h-2.7V7.3H87.7z M81.6,11.7h-3v16h3V11.7z M81.6,5.8h-3v3.2h3V5.8z M68.8,7.3v4.4h-2.2V14h2.2   v10.5c0,2.4,1.2,3.4,3.7,3.4c0.9,0,1.5-0.1,2-0.2v-2.3c-0.2,0-0.7,0.1-1.1,0.1c-1.2,0-1.7-0.3-1.7-1.3V14h2.7v-2.3h-2.7V7.3H68.8z    M50.7,16.4c0,2.3,1.6,3.5,4.8,4.3l2.2,0.6c2.6,0.6,3.1,1.1,3.1,2.2c0,1.6-1.4,2.5-3.6,2.5c-2.8,0-4-1.2-4.1-3.2h-2.8   c0.2,4.4,3.1,5.7,6.8,5.7c4.4,0,6.7-2.3,6.7-5.3c0-2.5-1.2-3.7-5.4-4.7l-1.9-0.5c-2.1-0.5-2.8-1.2-2.8-2.2c0-1.3,1.2-2,3-2   c2.5,0,3.6,1,3.7,2.6h2.8c-0.1-3-2.3-5.1-6.3-5.1C53.4,11.3,50.7,13.1,50.7,16.4 M35.3,11.7h-2.8v16h2.9v-9.4   c0-2.9,2.1-4.5,4.4-4.5c2,0,3,1.3,3,3.8v10.1h3V17.4c0-4.4-2-6.1-5.3-6.1c-2.2,0-3.9,0.9-5.2,2.6V11.7z M27,11.7h-3v16h3V11.7z    M27,5.8h-3v3.2h3V5.8z M15.4,2.2L3.9,29.3l2.9,1.2L18.3,3.4L15.4,2.2z"/>
</g>
</svg>